<?xml version="1.0" encoding="utf-8"?>
<!-- Generator: Adobe Illustrator 21.0.0, SVG Export Plug-In . SVG Version: 6.00 Build 0)  -->
<svg version="1.1" baseProfile="tiny" id="Layer_1" xmlns="http://www.w3.org/2000/svg" xmlns:xlink="http://www.w3.org/1999/xlink"
	 x="0px" y="0px" viewBox="0 0 313.4 523.2" overflow="scroll" xml:space="preserve">
<g>
	<path fill="#000000" d="M72.2,259.9c0.2-0.4,0.6-0.7,1.1-0.8c0.6-0.1,1.4-0.2,2.2-0.3c2-0.3,4.5-0.8,7.2-1l1.5-0.1
		c0.6-0.1,1.3-0.1,2-0.1c9.7,0,19.3,5.6,22.7,13.3c0,0,0,0.1,0,0.1c3.5,9.5-1.8,20.6-8.9,26.7c-3.9,3.7-8.9,5.7-14.2,5.7
		c-4.8,0-9.3-1.7-12.9-4.8c-4.7-3.6-7.1-8-6.6-12.3c0.4-4.5,4.4-9,9.1-10c0.4-0.1,0.7-0.1,1-0.1c0.1,0,0.2,0,0.3,0c0,0,0,0,0.1,0
		c0.2,0,0.4,0,0.5,0c3.7,0,5.6,2.9,6.7,5c0-0.2,0-0.5-0.1-0.8c0,0,0-0.1,0-0.1c-0.1-1.6-2-5.6-6.2-5.8c0,0-0.1,0-0.1,0l0,0
		c-5.7,0-10.8,3.9-12.6,9.7c-1.8,5.7,1.7,11.7,5.7,14.9c0,0,0,0,0,0c4.5,3.9,9.8,6.1,14.8,6.1l0.2,0l0.1,0c5.2,0,10.5-2.1,15-6
		c7.2-6.3,13.9-17.8,9.2-29.6c-4.5-8.4-13.9-13.6-24.4-13.6c-1.2,0-2.4,0.1-3.6,0.2c0,0-0.1,0-0.1,0c-2.2,0.3-4.4,0.8-6.4,1.6
		c-0.2,0.1-0.3,0.1-0.5,0.1c-0.4,0-0.7-0.1-1-0.4c-0.4-0.4-0.5-1-0.3-1.5c0.5-1.4,0.9-2.7,1.2-3.9c0,0,0-0.1,0-0.1
		c0.7-2.7,0.9-5.6,0.9-8.3c0-0.6,0.3-1.1,0.8-1.3c0.2-0.1,0.4-0.1,0.6-0.1c0.3,0,0.6,0.1,0.9,0.3c2.6,2.2,6.2,3.4,10,3.4
		c5.1,0,9.9-2.1,12.9-5.6c0,0,0-0.1,0.1-0.1c1.6-1.6,6.4-7.4,3.7-14.2c-1.3-2.6-3-4.1-5.4-5.7c-1.1-0.7-2.7-1.1-4.2-1.1
		c-1.2,0-2.4,0.3-3.4,0.8c-0.2,0.1-0.3,0.2-0.5,0.3c-0.4,0.2-0.7,0.3-0.9,0.5c0,0,0,0-0.1,0c-3.1,2.3-4.2,5.6-3.9,8
		c0.1,0.4,0.2,0.7,0.3,0.9c0-0.3,0-0.6,0.1-0.9c0.3-1.7,1.6-4.3,3.9-6.2c0,0,0,0,0.1,0c1.2-1.1,2.7-1.7,4.3-1.7
		c2.6,0,5.3,1.6,7.4,4.4c2.8,3.6,1.3,9.2-1.8,12.9c-2.8,3.8-7.7,6.1-12.7,6.1c-5.2,0-9.5-2.5-11.6-6.7c-4.9-9,0.2-20,7.4-25.8
		c4.5-4.2,10.1-6.6,15.4-6.6c4.1,0,7.9,1.5,10.8,4.3c0,0,0,0,0,0c2,1.7,3.7,3.5,5.1,5c0.5,0.5,0.9,0.9,1.3,1.3
		c0.4,0.4,0.5,1.1,0.3,1.6c-0.2,0.4-0.4,0.9-0.6,1.3c-1.4,3.8-1.7,7.2-0.8,10.2c0.9,3.1,3.5,6,6.8,7.6c2.3,1,4.8,1.7,7.5,2.1
		c0.6,0.1,1.1,0.6,1.2,1.2c0.1,0.6-0.3,1.2-0.8,1.5c-1.5,0.7-5.6,2.7-9.3,7.2c-0.4,0.5-0.8,1-1.1,1.6c0,0,0,0.1-0.1,0.1
		c-3.8,5.1-4.6,12.5-2,18.1c2.6,5.7,6.3,10,10.9,15.1l0.4,0.4c4.1,4.4,8.2,9,8.8,14.5c0.6,5.9-2.3,12.1-5,16.8c0,0,0,0.1,0,0.1
		c-0.6,0.9-1.2,1.9-1.8,2.8c-2.6,4.3-5.3,8.7-9.7,10.3c-1.9,0.8-3.9,1.1-6.1,1.1c-3.6,0-7.4-1.1-10.7-3.1c-5-2.9-8.9-8.9-6.3-14.3
		c2-4.2,7.3-8.8,11.5-8.8c0.7,0,1.3,0.1,1.9,0.3c0.6,0.2,1.1,0.5,1.5,0.8c2.8,2.1,4.3,5.9,4.8,8.8c0.1,0.4,0.1,0.7,0.1,1
		c0.1-0.4,0.2-0.8,0.2-1.2c0.3-1.9,0.2-5.7-3.4-9.3c0,0-0.1-0.1-0.1-0.1c-1.2-1.2-3.2-2-5.3-2c-1.6,0-3.1,0.4-4.2,1.1c0,0,0,0-0.1,0
		c-3,1.7-5.3,3.7-7.4,6.6c-2,2.7-2.7,6.6-1.6,9.7c0,0.1,0,0.1,0.1,0.2c0,0.1,0.1,0.2,0.1,0.3c0.2,0.5,0,1-0.3,1.4
		c-0.3,0.3-0.6,0.4-1,0.4c-0.1,0-0.2,0-0.3,0c-1.1-0.3-2.2-0.4-3.4-0.4c-0.5,0-1.1,0-1.6,0.1c0,0-0.1,0-0.1,0
		c-9.7,1.1-17.9,8.1-20.1,17.2c-2.3,9.1,1.5,19.4,9.4,24.9c2.9,2.1,7.4,4.7,12.8,4.7c0.1,0,0.2,0,0.3,0c4.7,0,9.4-2.2,12.6-5.9
		c3.6-4,4.9-9,3.6-13.4c-1.8-4.6-6-7.6-10.8-7.6c-0.2,0-0.4,0-0.6,0c-4.1,0.7-6.4,2.7-7.4,4.2c0.2-0.1,0.4-0.2,0.6-0.3
		c1.8-0.9,4.4-2,7.2-2.3c0.1,0,0.3,0,0.4,0c0.1,0,0.3,0,0.4,0c0.1,0,0.2,0,0.2,0c0,0,0,0,0.1,0c0.1,0,0.1,0,0.2,0
		c3.5,0.4,7.8,3.6,8.4,7.6c0.6,3.6-0.9,8-4.1,11.2c-2.8,3-6.7,4.7-11.1,4.7c-4.1,0-8.3-1.5-11.7-4.2c-7.1-5-10.8-13.9-9.1-22.1
		c1.4-8,8.4-14.9,17-16.7c0,0,0.1,0,0.1,0c0.1,0,0.3,0,0.4-0.1c0.3-0.1,0.5-0.1,0.8-0.1c1.6-0.3,3.2-0.4,5.1-0.4c0.8,0,1.5,0,2.2,0
		l0.7,0c0.4,0,0.8,0.2,1.1,0.6c1.1,1.4,2.4,2.8,4,4c3.9,2.7,8.4,4.2,12.8,4.2c2.1,0,4.1-0.3,6-1c3-1,5.9-3.1,7.8-5.9
		c2.1-2.9,3.8-5.5,5.3-8c3.1-5.6,6.1-11.6,5.3-18.5c-0.3-1.8-0.8-3.6-1.7-5.4c-0.2-0.4-0.2-0.8,0-1.2c-0.4,0-0.8-0.3-1-0.6
		c-1.6-2.6-3.7-4.9-5.7-7.1c-0.6-0.7-1.2-1.3-1.8-1.9c-4-4.4-8.5-9.7-10.4-15.3c-2-5.5-0.6-11.8,3.8-16.8c0,0,0,0,0.1-0.1
		c2.5-2.9,5.1-5.3,7.1-7.1c1.2-1.1,2.3-2.1,2.7-2.6c0.3-0.4,0.7-0.6,1.1-0.6c10.1-0.1,19.6-5.5,24.2-13.8c0,0,0-0.1,0.1-0.1
		c7-10.6,7.8-27.5-2.9-37.3c0,0,0,0-0.1-0.1c-0.6-0.6-1.3-1.3-2.1-1.9c-0.4-0.3-0.6-0.9-0.5-1.4c0.1-0.5,0.5-0.9,1-1.1
		c0.3-0.1,0.6-0.2,0.9-0.3l0.7-0.3c3.8-1.5,8.6-3.8,12.1-8c1.7-1.9,2.7-4.4,3.1-7.1c0.1-0.4,0.3-0.7,0.6-0.9
		c0.2-0.2,0.5-0.3,0.8-0.3c0.1,0,0.2,0,0.3,0c2,0.4,5,0.7,8.2,0.9l1.3,0.1c10.9,1.2,18.7,5.7,21.2,12.5c2.7,7.7,0.8,18.6-6.7,22.8
		c-2.5,1.5-5.6,2.3-9,2.3c-5.7,0-11.1-2.4-14.2-6.3c-3-3.3-3-8.6-1.5-12.2c1.2-2.8,3.2-4.4,5.6-4.4c1.3,0,2.6,0.5,3.9,1.5l0.1,0
		c0.3,0.2,0.6,0.4,0.9,0.7c2.8,2.1,4,4.9,4.6,6.7c0.2-1.8-0.1-4.8-3-7.5c0,0-0.1-0.1-0.1-0.1c-2.1-1.8-4.3-2.8-6.7-2.8
		c0,0,0,0-0.1,0c-0.1,0-0.2,0-0.2,0c-2.7,0-5.1,2-6,3.8c-2.5,4.7-2.3,10.2,0.3,14.2c3.6,5,9.6,8,16.1,8c3.5,0,6.9-0.9,9.9-2.5
		c4-2.2,7-6.5,8.1-11.5c1.2-5.5,0.9-10.1-0.9-14.2c-3.5-7.5-11.3-11.8-23.9-12.9c0,0-0.1,0-0.1,0c-0.8-0.1-1.6-0.1-2.3-0.1
		c-2,0-3.9,0.2-5.4,0.6c-0.1,0-0.2,0-0.3,0c-0.3,0-0.6-0.1-0.8-0.3c-0.3-0.2-0.5-0.6-0.6-1c-0.1-1.5-0.4-2.9-0.9-4.2
		c0,0,0-0.1,0-0.1c-1.3-4.5-5.3-9-10.5-9c-0.1,0-0.2,0-0.3,0c0,0,0,0,0,0c0,0,0,0-0.1,0c-0.1,0-0.2,0-0.3,0c-2.7,0-5.5,1.5-7.2,3.7
		c-1.5,1.9-2,4.2-1.3,6.5c0,0,0,0.1,0,0.1c0,0.2,0.1,0.4,0.2,0.6c0.9,2.2,2.4,3.2,3.2,3.5c-0.1-0.5-0.5-1.4-0.8-2.1
		c-0.2-0.5-0.5-1.1-0.7-1.6c-0.8-1.7-0.7-3.6,0.3-5.3c1.2-2.1,3.6-3.6,6.2-3.8c0.3,0,0.5,0,0.8,0c3.9,0,7.5,3.1,9,7.8
		c1.3,3.2,1.3,6.4-0.1,9.5c-2.1,4.7-7.4,8.7-14.1,10.9c0,0,0,0,0,0c-1.4,0.5-2.6,1.1-3.3,1.7c-0.2,0.2-0.5,0.3-0.9,0.3
		c-0.2,0-0.4,0-0.6-0.1c-2.3-1.1-4.7-1.9-7.1-2.6c-1.6-0.5-3.1-1-4.4-1.5c-6.1-2.6-10.7-7.5-12.6-13.5c0,0,0-0.1,0-0.1
		c-1.4-4.4-1.8-8.6-2-11.3c0-0.1,0-0.2,0-0.3c0,0,0,0,0,0c-0.5,1.8-1.4,6.6,0.6,12.7l0.1,0.3c0.2,0.6,0.4,1.1,0.7,1.6c0,0,0,0,0,0.1
		c2.5,5.7,7.8,10.4,14.2,12.8c6.7,2.1,12,3.7,16.5,8.3c8.3,8.4,9.1,23.1,2,34.2C152.1,231.8,143,237,133,237c-3,0-5.9-0.5-8.6-1.4
		c-6.2-2.1-9.3-8.1-7.4-14.2c1.2-5.5,5.1-9.4,9.6-9.4c1.1,0,2.1,0.2,3.2,0.6c0.6,0.2,1.1,0.5,1.6,0.8c3.9,2.3,5.2,6.1,4.7,8.7
		c-0.1,0.4-0.2,0.8-0.3,1.2c0.2-0.2,0.3-0.5,0.5-0.8c0,0,0-0.1,0.1-0.1c1.4-2.1,0.7-7.3-3.2-9.8c-0.1,0-0.1-0.1-0.2-0.1
		c-1.9-1.4-4.2-2.1-6.5-2.1c-1.2,0-2.4,0.2-3.5,0.6c-1.8,0.7-3.4,1.9-4.7,3.6c-0.3,0.3-0.7,0.6-1.1,0.6c0,0-0.1,0-0.1,0
		c-0.5-0.1-0.9-0.4-1.1-0.8c-1.1-2.3-2.9-4.6-5.1-6.5l-1.3-1c-3-2.2-6.8-3.5-10.6-3.5c-0.3,0-0.6,0-1,0c0,0-0.1,0-0.1,0
		c-0.4,0-0.7-0.1-1-0.4c-0.5-0.5-1.1-1-1.8-1.6c-1-0.8-2-1.8-3.1-2.9l-0.7-0.7c-4.4-4.6-3.8-11.9,1.5-18.6c2.5-4.2,6.3-6.6,10.8-6.6
		c2.3,0,4.6,0.6,6.8,1.7c6.2,3,11.4,9.9,9.5,16.2c-1.1,4-6.1,8-9.9,8c-2.2,0-3.8-1.3-4.4-3.4c0,0,0,0,0-0.1c0,0,0-0.1,0-0.1
		c-0.1-0.2-0.1-0.4-0.2-0.7c-0.8-2.9,0.3-4.9,1.1-6.1c-0.2,0.1-0.3,0.1-0.5,0.2c0,0,0,0-0.1,0c-1.2,0.6-2.7,2.9-2.3,5.5
		c0,0.1,0,0.1,0,0.2c0.2,1.3,0.9,3.6,3.1,5.1c1.2,0.8,2.6,1,3.5,1c0.8,0,1.7-0.1,2.5-0.4c4.1-1.7,6.9-4.2,8.5-7.9
		c2.9-8.2-3.1-15.7-9.9-19.1c-2.6-1.3-5.3-2-7.8-2c-1.2,0-2.4,0.2-3.5,0.5c-3.8,0.9-6.5,4.1-8.8,7.3c-2.7,3.8-4.1,7.2-4.3,10.6
		c-0.3,3.7,1.3,7.8,4.2,10.5c0,0,0,0,0.1,0.1c0.8,0.7,1.6,1.4,2.5,1.9c0.5,0.3,0.7,0.8,0.7,1.4c-0.1,0.5-0.4,1-1,1.2
		c-3.7,1.2-7.2,3.3-11.2,6.7c-7.3,6.2-12.1,17.5-7.2,27.2c0.1,0.3,0.3,0.5,0.5,0.8c0.2,0.3,0.2,0.6,0.2,0.9c-0.1,0.6-0.2,1.3-0.3,2
		c-0.4,2.8-1,6.2-1.9,10l-0.5,1.8c-4.1,13.9-16.3,23-23.2,27.1c-5.4,3.1-11.8,4.8-18.4,4.8c-5.6,0-11.4-1.2-16.8-3.4
		c-6.5-2.2-11-6.5-12.3-11.8c-1.4-5.2,0.3-11.6,4.4-16.6c3.4-4.1,8-6.6,12.4-6.6c1.1,0,2.1,0.1,3.1,0.4c3.4,1.1,7.6,3.8,9.3,7.3
		c0.9,1.7,1,3.5,0.5,5.1c-0.2,0.6-0.4,1.1-0.7,1.6c-1.8,3.5-5.4,5.7-7.9,6.5c-0.4,0.2-0.9,0.3-1.2,0.4c0.3,0,0.6,0.1,0.9,0.1l0.1,0
		c2.5,0,6.5-1.4,9.1-5.2c0-0.1,0.1-0.1,0.1-0.1c1.9-2.7,2-7.1,0.2-9.7c-2.2-3.4-5.1-5.2-7.7-6.5c-1.7-0.9-3.7-1.3-5.7-1.3
		c-4.5,0-9.4,2.2-12.6,5.9c-4.9,5.2-7.2,12.1-6.1,18.4c1.2,7.3,7.9,12,13.2,13.8c0,0,0.1,0,0.1,0c2.2,0.9,4.4,1.7,6.8,2.3
		c0.6,0.1,1,0.6,1.1,1.2c0.1,0.6-0.2,1.1-0.7,1.4c-0.9,0.5-1.8,1.1-2.7,1.8l-0.8,0.7c-3.9,3.2-10.3,9.8-9.5,18.4
		c1,7,5,13.1,11.7,17.5c2.1,1.3,4.5,2,7.1,2c4.5,0,9.4-2,12.8-5.3c0.4-0.4,0.7-0.8,1.1-1.1c2.2-2.1,4-4,4.9-8
		c-0.6-4-2.7-6.7-6.6-8.6l-1.1-0.4c-0.6-0.1-1.1-0.1-1.6-0.1c-2.7,0-4.3,1.2-5,2.2c0.2,0,0.3-0.1,0.5-0.1c1-0.2,2.2-0.5,3.5-0.5
		c0.6,0,1.2,0.1,1.8,0.2c0,0,0,0,0,0c3.1,0.5,5.8,3.5,6.7,6.2c1.3,2.6-4,7.9-4.5,8.4l0,0c-3.6,3.6-8.1,5.6-12.3,5.6
		c-2.3,0-4.5-0.6-6.4-1.8c-6-3.7-10.5-10.6-10.9-16.7c-0.5-7.9,5.9-14.2,9.9-17.2c0,0,0,0,0.1-0.1c1.7-1.4,3.6-3,4.7-4.2
		c0.3-0.3,0.6-0.5,1-0.5c0.1,0,0.1,0,0.2,0c1.9,0.3,3.9,0.4,5.8,0.4c7.4,0,14.4-1.9,20.3-5.5C58,277.7,67,270.5,72.2,259.9z"/>
	<path fill="#000000" d="M190.4,26c3.4-1.3,6.9-2,10.2-2c3.6,0,6.9,0.8,9.8,2.3c5.6,3,11.3,9,11.6,15.7c0.3,6.8-6.2,12.5-12.5,13.6
		c-0.8,0.2-1.5,0.3-2.3,0.3c-3.1,0-6-1.6-7.4-4.2c-1.4-2.5-1.3-5.4,0.3-7.9c0,0,0,0,0-0.1l0.5-0.7c1.6-2.6,3.8-3.3,5.1-3.6
		c-0.2-0.1-0.3-0.1-0.6-0.2c0,0,0,0-0.1,0c-0.2-0.1-0.5-0.1-0.8-0.1c-1.3,0-3.3,0.7-4.6,2.4c0,0-0.1,0.1-0.1,0.1
		c-2.6,3.4-3,7.7-1.2,11.2c2.1,3.5,6,4.7,8.9,4.7c0.5,0,0.9,0,1.4-0.1c7.4-0.8,15-6.7,15-15.2c-0.1-1-0.2-2-0.5-3
		c-0.1-0.5,0.1-1.1,0.5-1.4c0.2-0.2,0.5-0.3,0.8-0.3c0.2,0,0.5,0.1,0.7,0.2c0,0,0.1,0,0.1,0l0.7,0.4c2.9,1.4,6.7,3.1,10.8,3.1
		c1.4,0,2.8-0.2,4.2-0.6c6.6-2.3,8.8-9,9.4-11.8c0.6-2.8,0.1-5.7-1.4-7.7c-1.5-2.1-4-3.5-6.9-3.9c0,0-0.1,0-0.1,0
		c-0.5-0.1-1-0.2-1.6-0.2c-2.8,0-5.7,1.4-7.2,3.6c-1.3,1.8-1.6,4-0.9,6.4c0.1,0.2,0.2,0.4,0.4,0.6c1.6,1.5,3,1.8,3.8,1.8
		c0.5,0,0.8-0.1,1-0.2c-0.3-0.3-0.8-0.6-1.1-0.8c-0.7-0.4-1.4-0.9-2-1.5c-0.4-0.3-0.7-0.7-0.8-1.2c-0.4-1.4,0.4-3.6,1.4-4.7
		c0,0,0,0,0.1-0.1c1.3-1.4,3.4-2.2,5.7-2.2c0.2,0,0.5,0,0.7,0c2.6,0.2,4.9,1.4,6.3,3.3c1.3,1.8,1.7,4.1,1.1,6.4
		c-0.9,4.5-4,9.5-8.7,10.7c-0.9,0.3-2,0.4-3.1,0.4c-3.2,0-6.9-1.1-10.9-3.3c0,0,0,0-0.1,0c-1.6-0.8-3-1.4-4-1.6
		c-0.4-0.1-0.8-0.3-1-0.7c-2.2-3.6-5.7-6.8-10.3-9.3c-0.5-0.3-0.8-0.8-0.7-1.4c0.1-0.6,0.5-1,1-1.2c0.9-0.2,1.7-0.5,2.4-0.8l1.2-0.5
		c0.1,0,0.1,0,0.2-0.1c9-2.5,14.4-12.2,14.7-20.7h-1.8c0,1.2-0.1,2.3-0.3,3.4c-0.9,7.2-6.5,13.3-14.9,16.4c0,0,0,0,0,0
		c-0.5,0.2-1.1,0.4-1.6,0.6c-2.1,0.8-3.9,1.5-5.1,2.1c-0.2,0.1-0.4,0.2-0.6,0.2c-0.1,0-0.2,0-0.3,0c-1.4-0.3-2.9-0.4-4.4-0.4
		c-3.9,0-8.1,0.9-12,2.5c0,0-0.1,0-0.1,0c-3,1.3-4.7,2.9-5.3,3.5c-0.1,0.1-0.3,0.3-0.5,0.3c1.5-0.3,4.1-1.4,6.7-2.4L190.4,26z"/>
	<path fill="#000000" d="M313.4,365.8c-0.1-5.5-2.7-11.3-7.3-15.8c-9.1-9-18.3-13.6-27.4-13.6c-1.3,0-2.6,0.1-3.9,0.3
		c0,0-0.1,0-0.1,0c-2,0.3-4,1-5.8,1.9c-0.2,0.1-0.4,0.2-0.7,0.2c-0.3,0-0.6-0.1-0.9-0.3c-0.4-0.4-0.6-1-0.4-1.5c0.7-2,1-4,1-6
		c0-5.3-1.6-10.4-4.6-14.7c-1.3-1.8-3.4-4.2-6.2-4.9c-1.2-0.4-2.5-0.5-3.8-0.5c-1.3,0-2.7,0.2-4.2,0.5c-6.2,1.7-10.2,5-11.9,9.7
		c-1.5,5.8,2.7,10.6,7.3,13.1c0.2,0.1,0.4,0.2,0.6,0.3c0.4,0.2,0.7,0.3,1,0.4c0.1,0,0.1,0,0.2,0c0.4,0.1,0.8,0.2,1.2,0.2
		c1.7,0,3.2-0.9,3.9-1.7c0,0,0,0,0.1-0.1c1.2-1.3,1.6-2.6,1.9-3.7c0.1-0.4,0.1-0.7,0.2-1c-0.1,0.1-0.1,0.2-0.2,0.2l-0.3,0.5
		c-1.7,2.8-3.5,4.2-5.2,4.2c-0.3,0-0.5,0-0.8-0.1c0,0-0.1,0-0.1,0c-3.6-0.9-9-5.8-8.5-10.2c0.3-4.5,5.1-8.3,9.7-9.8
		c1.6-0.7,3.2-1,4.7-1c8.1,0,13.2,9.6,13.3,18.5c0.4,10.8-9.7,17.8-19.9,19.1c-2.4,0.4-4.8,0.7-7.1,0.7c-8.9,0-16.1-3.2-20.5-9
		c0,0,0,0,0,0c-1.9-2.4-3.4-4.9-4.5-6.7l-0.4-0.7c-0.1-0.2-0.2-0.5-0.2-0.7c0-4.7-0.7-9.1-2.2-13.3c-3.5-9.5-11.1-17.8-21-22.9
		c-7.8-4-17-6.5-27.9-7.6c-0.6-0.1-1.1-0.5-1.2-1.2s0.2-1.2,0.8-1.5l0.5-0.2c5.6-2.6,12.6-7.3,14.4-15.2c0.8-3.3,0.5-7-0.7-10.8
		c-0.9-3-2.4-6.8-5.6-9.2c-2.3-1.7-5-2.6-7.9-2.6c-4.6,0-9.2,2.2-12,5.8c-2.4,2.9-3.2,7.2-2,10.6c1.3,3.8,3.4,6.5,6.6,8.7l1.2,0.6
		c0.6,0.3,1.2,0.4,1.8,0.4c2,0,3.7-1.3,4.1-2c0-0.1,0.1-0.1,0.1-0.2c0.2-0.2,0.3-0.5,0.4-0.7c0,0-0.1,0-0.1,0
		c-1.1,0.5-2.4,1.2-3.8,1.2c-0.6,0-1.1-0.1-1.6-0.3c0,0-0.1,0-0.1-0.1c-3.2-1.5-6.1-5.2-7.1-9c-0.7-2.9-0.2-5.6,1.5-7.6
		c2.3-3.5,6.7-5.8,11.2-5.8c2.6,0,4.9,0.8,6.7,2.2c4.7,3.8,7.3,12.5,5.7,18.9c-2,7.7-9.9,12.1-14.5,14.1c0,0,0,0,0,0
		c-2.3,1-4.9,2.2-6.1,3.1c-0.2,0.2-0.5,0.3-0.9,0.3c-5.3,0-9.7,0.5-12.8,1.1c1,0,2.1,0.1,3.4,0.1c4.6,0.1,10.3,0.3,16.6,0.8l3.1,0.3
		c18.4,1.7,40.3,10.7,46.5,30.9c2.7,8.9,1.8,19.3-2.6,28.7c-2.5,5-4.7,8.4-9.2,11.2c-4.4,3.3-8.6,5.7-12.7,7.5c-4.5,2-9.4,3-14.1,3
		c-5.1,0-9.9-1.1-14.3-3.4c-5.3-2.7-8.8-5.8-10.6-9.5c-2.1-4.1-2-9.3,0.1-13.8c2.9-6.4,9.8-10.9,16.8-10.9c2.7,0,5.2,0.6,7.4,1.9
		c2.4,1.3,8.1,4.8,9.2,10.3c1,4.3-1.2,9.2-5.5,12c-0.7,0.5-1.5,0.9-2.5,1.3c-0.9,0.4-1.8,0.6-2.8,0.6c-3.2,0-5.5-2.4-6.5-4.4
		c-1-2-1.1-4-0.1-5.3c0.3-0.5,0.7-1,1-1.4c-0.4,0.3-0.7,0.6-1.1,0.9c0,0,0,0,0,0c-1.4,1.2-1.8,3.6-0.8,6.2c1,2.6,3.5,5.6,7.7,5.6
		c0.5,0,1,0,1.5-0.1c0,0,0.1,0,0.1,0c5.5-1.2,9.8-5.6,11-11.1c1.1-5.6-2.6-11.1-6.9-13.9c0,0,0,0-0.1,0c-3.4-2.6-7.6-4.1-11.7-4.1
		c-1.2,0-2.4,0.1-3.5,0.4c-5.2,1.1-10,4.4-13,9c-3.2,4.7-4.1,10.7-2.3,15.6c0.8,2.5,2.3,4.8,4.3,6.8c0.4,0.4,0.5,1,0.3,1.5
		c-0.2,0.5-0.7,0.8-1.3,0.8c0,0,0,0,0,0c-0.2,0-0.4,0-0.7,0c-2.8,0-7.2,0.5-12,3.1c0,0-0.1,0-0.1,0c-0.4,0.2-0.8,0.4-1.2,0.7
		c-0.2,0.2-0.5,0.3-0.7,0.5c-9.3,6.2-14.9,17.3-15,29.7c0,0.4-0.2,0.8-0.5,1.1c-1.3,1.1-3,3.2-4.4,4.9l-0.7,0.8
		c-3.4,4-9,9-16.6,10.6c-1.6,0.3-3.2,0.4-4.9,0.4c-5.8,0-10.7-1.8-13.5-4.9c-4.3-4.8-2.4-13.2,2.3-17.5c1.8-1.7,3.9-2.7,6-2.7
		c0.9,0,1.8,0.2,2.6,0.6c2.3,1.1,6.2,4.3,5.6,7l-0.1,0.5c0,0.1,0,0.1-0.1,0.2c-0.6,1.6-1.9,3-2.9,4.2c-0.2,0.3-0.5,0.6-0.7,0.8
		c1.4-0.2,3.4-1.4,5.1-4.1c0,0,0,0,0,0c0.8-1.8,0.3-4.3-0.7-5.6c0,0,0-0.1-0.1-0.1c-1.2-1.8-2.7-2.8-4.2-3.9
		c-1.2-0.8-2.7-1.3-4.3-1.3c-2.4,0-4.8,0.9-6.4,2.4c0,0,0,0-0.1,0.1c-5.6,4.7-8.4,13.8-3.3,20.3c3.6,3.8,8.4,5.6,14.6,5.6
		c1.9,0,4-0.2,6.2-0.5c6.6-1.6,12.9-5.8,17.8-12c0,0,0-0.1,0.1-0.1c0.4-0.5,0.8-1.1,1.2-1.7c0.3-0.4,0.7-0.7,1.2-0.7
		c0.1,0,0.2,0,0.3,0c0.6,0.1,1,0.6,1.1,1.2c0.2,1.3,0.4,2.5,0.7,3.7c1.8,7.2,5.3,13.9,10.2,19.2c2.4,2.5,5.1,5.1,8.8,6.7
		c1.4,0.4,2.8,0.7,4.2,0.9c0.4,0.1,0.8,0.3,1,0.6c0.4,0.6,0.9,1.2,1.4,2c1.7,2.4,4,5.8,6.1,9.6c0.2,0.4,0.4,0.8,0.6,1.2
		c0.1,0.2,0.2,0.4,0.3,0.6c6.1,11.6,4.3,26.1-4.7,36.9c-9.3,12.3-20.3,19-30.9,19c-0.6,0-1.2,0-1.8-0.1c-5.9-0.3-12.7-2.9-17.8-6.7
		c0,0-0.1-0.1-0.1-0.1c-4.3-4.2-5.5-12.1-2.7-17.7c1.8-4.1,5.7-6.6,10.4-6.6c1.9,0,3.8,0.4,5.6,1.2c3.8,1.4,6.7,4.3,7.5,7.5
		c0.6,2.5,0,5-1.9,7.1c0,0-0.1,0.1-0.1,0.1c-0.1,0.1-0.2,0.2-0.4,0.4c-0.2,0.3-0.5,0.5-0.8,0.8c-1,0.9-2.3,1.4-3.6,1.4
		c-2.5,0-4.8-1.6-5.9-3c-0.3-0.4-0.6-0.7-0.8-1.1c0.1,0.3,0.2,0.6,0.3,0.9c0,0,0,0.1,0,0.1c0.5,1.6,3.2,4.6,6.7,4.6
		c1.1,0,2.3-0.3,3.4-0.9c2.5-1.7,5.3-4.8,5-9.7c-0.3-3.3-2.5-6.3-6.4-8.7c-2.9-1.6-5.9-2.4-8.9-2.4c-0.5,0-1.1,0-1.6,0.1
		c-3.6,0.4-7.2,2.7-9,5.7c-4,6.3-3.5,14.7,1.2,20.5c5.5,4.7,11.5,7.2,19.6,8.1c0.7,0,1.3,0.1,2,0.1c9.1,0,17.9-4.2,26.2-12.5
		c0.3-0.3,0.6-0.4,1-0.4c0.2,0,0.4,0,0.6,0.1c0.5,0.3,0.9,0.8,0.8,1.4c-0.2,1.5-0.2,3.8,0.3,6.7l0.3,1.4c1.2,5.2,3.3,9.3,6.4,12.2
		c3.2,3.1,7.9,4.9,12.8,5c10,0,18.7-2.8,25.9-8.2c3.9-3.2,6.3-7.6,6.6-12.1c0.3-4.7-1.6-9.5-5.2-12.8c-2.5-2.5-6.2-4-9.9-4
		c-1.2,0-2.3,0.1-3.4,0.4c0,0-0.1,0-0.1,0c-4.7,0.9-8.5,5.8-8.1,10.6c0,0.1,0,0.1,0,0.2c0,0.3,0.1,0.7,0.2,1.2l0,0.2c0,0,0,0,0,0
		c0.5,3.3,3.6,5.5,5.6,5.7c0,0,0.1,0,0.1,0c0.3,0,0.6,0.1,0.9,0.1c0,0,0.1,0,0.1,0c-1.7-0.9-4.1-2.4-4.9-5.6c0,0,0-0.1,0-0.1
		c-1.2-4.2,1.1-8.9,5.2-10.3c1.4-0.5,2.9-0.8,4.5-0.8c2.9,0,5.7,1,7.8,2.8c3.5,2.6,5.5,6.8,5.4,11.3c0,4.7-2.2,9-5.9,11.7
		c-6.2,4.9-15.3,7.9-24.2,7.9c-0.5,0-0.9,0-1.3,0c-8.8-0.2-15.9-7.4-17.3-17.6c0,0,0,0,0,0c-0.3-1.4-0.5-2.7-0.7-3.9
		c-0.3-2.1-0.6-3.9-1-5.1c-0.1-0.5,0-1,0.3-1.3c1.4-1.6,2.7-3.2,4-5c4.6-6,7.2-12.8,7.8-19.5c0.5-6.6-1.2-13.9-4.8-20.3
		c0,0,0-0.1-0.1-0.1c-2.2-3.9-4.7-6.6-6.4-8.2c-0.4-0.4-0.6-1-0.3-1.6c0.2-0.5,0.7-0.9,1.3-0.9c0,0,0,0,0.1,0l0.4,0
		c0.7,0,1.4,0.1,2.1,0.1c0.7,0.1,1.4,0.1,2,0.1c7.5,0,15.2-3.9,20.1-10.1c4.3-5.4,5.9-11.8,4.4-18.1c-1.4-6.4-7.6-13.1-15.5-13.1
		c-0.3,0-0.5,0-0.8,0c-3.3,0.1-6.7,1.2-10.6,3.4c-3.1,2-6.4,4.6-6.6,9c0,0.8,0.1,1.7,0.4,2.4c2.1,4.8,6.3,6.6,9.6,6.6
		c0.5,0,1,0,1.5-0.1c0.5-0.1,0.9-0.3,1.3-0.5c-0.3,0-0.6,0.1-0.9,0.1l-0.1,0c-0.1,0-0.1,0-0.2,0c-2.9,0-7.2-2.1-9.1-5.6
		c0,0,0,0,0-0.1c-0.9-1.5-1-3.3-0.3-5c1.7-3.9,7.7-7.3,12.5-8.3c1-0.2,2-0.3,3-0.3c6,0,11.6,4.2,13.7,10.1
		c2.5,6.3,0.8,13.5-4.8,19.7c-4.3,5.1-10.8,7.9-18.4,7.9c-0.3,0-0.6,0-0.9,0c-3.9-0.2-8.2-0.4-10.6-1.3c0,0-0.1,0-0.1,0
		c-3.4-1.5-6.4-4.4-8.4-6.6c-4.9-5.6-8.4-12.4-9.7-19.3c-3.3-14.7,3.7-31.1,15.8-37.4c0,0,0.1,0,0.1,0c5-2.6,9.9-3.6,13.1-4.3
		c0.4-0.1,0.7-0.1,1-0.2c0.1,0,0.2,0,0.3,0c0.3,0,0.6,0.1,0.8,0.3c1.1,0.8,2.3,1.6,3.6,2.2c0,0,0,0,0.1,0c4.8,2.8,10.4,4.3,16.4,4.3
		c4.9,0,9.8-1,14.2-3c0.2-0.1,0.3-0.1,0.4-0.2l0.3-0.1c0.2-0.1,0.4-0.1,0.5-0.1c0.4,0,0.8,0.2,1.1,0.5c0.4,0.5,0.5,1.1,0.1,1.6
		c-1.3,2.1-2.3,4.7-3,7.2c-0.1,0.6-0.3,1.2-0.3,1.7c0,0,0,0.1,0,0.1c-1.5,7.3,0.4,14.7,5.3,20.8c5.9,7.2,15.1,11.7,24.1,11.7
		c6.2,0,11.9-2.1,16.3-6.2c0,0,0,0,0,0c4.7-4,7.7-9.1,8.4-14.4c0.8-5.2-1.5-11.3-5.8-15.5c-4.2-4.2-9.3-6.5-14.3-6.5
		c-0.3,0-0.7,0-1,0c-3.5,0.2-6.9,1.9-9,4.4c-1.7,2-2.4,4.3-2.1,7c0.1,0.6,0.3,1.3,0.5,1.8c1.7,3.7,5.1,5.3,7.6,5.3
		c0.2,0,0.5,0,0.7,0c0.4-0.1,0.7-0.1,1-0.2c-0.3,0-0.6,0-0.9-0.1c-2-0.3-5-2.1-6.5-4.8c0,0,0,0,0,0c-1-1.6-1.2-3.5-0.4-5.4
		c1.1-2.8,4.2-5.2,7.4-5.9c0.9-0.2,1.8-0.3,2.8-0.3c4.1,0,8.5,1.8,12,5.1c4.6,4.1,6.9,9.3,6.5,14.3c-0.4,5.1-3.2,10.2-7.7,13.9
		c-4.1,4-9.5,6.1-15.4,6.1c-8.9,0-18.3-4.9-23.8-12.4c-4.6-6.2-5.9-13.5-3.7-20.3c0,0,0,0,0,0c0.8-3.1,1.7-5.7,2.5-7.9
		c0.4-1.1,0.7-2,0.9-2.7c0.1-0.3,0.3-0.6,0.7-0.8c2.6-1.5,5.3-3.2,8.3-5.4c0,0,0.1-0.1,0.1-0.1c4.5-2.7,7.9-8.1,9.7-12.2
		c1.6-3.5,2.7-7.1,3.3-10.9c0.1-0.6,0.6-1,1.2-1.1c0.1,0,0.2,0,0.2,0c0.5,0,1,0.3,1.2,0.7c0.6,1.1,1.3,2.1,2,3l1.1,1.2
		c6,6.7,14.4,8.1,20.5,8.1c2.8,0,5.6-0.3,8.3-0.9c6-1.2,10.6-3.2,14.1-6.3c1-0.9,1.9-1.9,2.7-3c0.2-0.2,0.4-0.4,0.6-0.5l0.4-0.2
		c2.3-1,5.8-2.4,10-3l1.6-0.2c0,0,0,0,0.1,0c0.5,0,1.1-0.1,1.6-0.1c11,0,20.6,7.5,26.8,13.7c3.9,3.7,6.1,8.7,6.2,14
		c0.1,5.5-2.2,10.9-6.1,14.8c-4.1,4.5-11.7,9.4-18.9,9.4c-3.7,0-6.8-1.3-9.1-3.8c-4.2-4-5.6-9.7-3.6-14.2c1.5-3.5,5.1-6,8.8-6
		c1.4,0,2.7,0.3,3.9,1c0.5,0.2,1,0.5,1.5,0.9c1.9,1.3,5.4,3.7,3.5,7.2c-0.2,0.3-0.4,0.7-0.6,1c0.2-0.1,0.4-0.3,0.7-0.5
		c0.7-0.5,1.8-2.1,1.4-4c-0.4-2-1.9-3.4-3.3-4.5c-0.1-0.1-0.1-0.1-0.2-0.2c-1.7-1.6-4-2.4-6.7-2.4c-4,0-7.6,1.9-9.3,4.9
		c0,0-0.1,0.1-0.1,0.1c-3.8,5.2-2.1,12.7,1.7,16.9c0,0,0.1,0.1,0.1,0.1c2.3,3.3,6.8,5.3,11.7,5.3c1.6,0,3.2-0.2,4.6-0.7
		c0,0,0,0,0.1,0c5.6-1.5,10.8-4.6,15-9.1C309.2,379.1,313.5,373.3,313.4,365.8z"/>
	<path fill="#000000" d="M71.6,83.5c-0.7-0.1-1.4-0.2-2.1-0.2c-2.8,0-5.6,1-8.1,3c-2.9,2.3-4.6,6.1-4.1,9.6c0.4,3.7,2.6,6.7,4.7,9.4
		c1.7,2.2,3.8,4.1,6.1,5.5c0.4,0.3,0.7,0.7,0.6,1.2c0,0.5-0.3,0.9-0.7,1.2c-1.2,0.7-2.4,1.5-3.4,2.6l-0.7,0.8c0,0,0,0-0.1,0.1
		c-4,3.7-8.5,11.7-4.6,18.7c1.8,3.3,4.1,5.8,7,7.6c1.8,1.1,4,1.8,6.2,1.8c1.4,0,2.7-0.2,3.9-0.7c6.4-2.7,11.3-9.8,8.4-17.2
		c-1.6-2.9-4.4-4.5-8.8-5.3c-0.3,0-0.7,0-1,0c-1.8,0-3.2,0.5-4.2,1.4c-1.7,1.5-2.1,3.6-2.2,5l0,0.1c0,0.3-0.1,0.6,0,0.9
		c0,0,0,0.1,0,0.1c0.1,2.3,1.3,4.5,2.9,5.3c0.2,0.1,0.4,0.2,0.6,0.2c-0.7-1-1.6-2.4-1.8-5.2c0,0,0-0.1,0-0.1c-0.2-2,0.3-3.7,1.3-4.8
		c0.8-0.9,1.8-1.3,3.1-1.3c0.1,0,0.1,0,0.2,0l0.1,0c2.7,0,6.6,1.4,8.1,3.8c1.3,1.9,1.5,4.4,0.6,7.1c-1.2,3.7-4.2,7-7.6,8.2
		c-1.1,0.5-2.3,0.7-3.5,0.7c-5.3,0-9.9-4.6-11.9-8.9c-3.1-6.1,0.7-12.9,5.4-17.3c0,0,0,0,0.1-0.1c1.4-1.4,2.8-2.8,3.7-3.9
		c0.3-0.3,0.7-0.5,1.1-0.5c0.2,0,0.4,0,0.5,0.1c2,0.8,4,1.2,5.9,1.2c1.1,0,2.1-0.1,3.2-0.4c7.3-1.7,12.5-6.9,16.6-11.8
		c0,0,0,0,0.1-0.1c1-1.2,1.8-2.5,2.3-3.7c0.2-0.5,0.7-0.8,1.2-0.8c0,0,0,0,0,0c0.5,0,1,0.3,1.2,0.8c1.1,2.1,2.4,4.1,3.8,5.9
		c5.4,6.7,13.1,11.7,21.8,14.1c0.4,0.1,0.7,0.4,0.9,0.7c0.5,0.9,1.2,2,1.9,3.2c0.3,0.5,0.7,1.1,1,1.7l0.5,0.8
		c3.3,5.6,3,12.4-0.6,17.7c-3.5,5.5-8.6,8.8-13.6,8.8c-0.6,0-1.1,0-1.7-0.1c-6-0.7-11.7-5.8-13-11.5c-0.6-1.7-0.2-3.7,1-5.5
		c1.6-2.3,4.4-3.9,6.8-3.9c1.4,0,2.5,0.5,3.4,1.5l0.1,0.1c0.1,0.1,0.3,0.3,0.5,0.6c1.1,1.5,1.5,3.3,1.7,4.7c0,0.2,0.1,0.5,0.1,0.7
		c0.6-1,1.2-3.1-0.3-6.1c0,0,0,0,0-0.1c-1.1-1.9-3.3-3-5.9-3c-1.5,0-2.9,0.4-4,1.2c0,0-0.1,0.1-0.1,0.1c-1.6,0.9-2.7,2.2-3.9,3.7
		c-1,1.5-1.5,3.4-1.2,5.3c1.3,7.1,7,12.6,14.6,13.9c0.6,0.1,1.3,0.1,1.9,0.1c1,0,2.1-0.1,3.1-0.4c0.1,0,0.2,0,0.3,0
		c0.4,0,0.7,0.2,1,0.4c0.1,0.1,0.2,0.2,0.3,0.4c0,0,0-0.1,0-0.1c-0.1-0.6,0.3-1.2,0.9-1.4c3.8-1.6,7.4-4.9,9.8-8.9
		c0,0,0-0.1,0.1-0.1c3.9-5.6,3.7-14.1-0.2-19.8c0,0-0.1-0.1-0.1-0.1c-0.2-0.3-0.4-0.6-0.7-1c-0.3-0.4-0.4-1.1-0.1-1.6
		c0.3-0.4,0.7-0.7,1.2-0.7c0.1,0,0.1,0,0.2,0c1.6,0.2,3.2,0.3,5.2,0.3c1.5,0,3.1-0.1,4.5-0.1c1.5-0.1,2.9-0.1,4.3-0.1
		c2.6,0,6,0.2,9,1.4c0,0,0,0,0,0c0.8,0.4,1.6,0.8,2.4,1.3c0,0,0.1,0,0.1,0.1c5.5,4.3,9.5,9.7,12,13.3c0.6,0.8,1.1,1.5,1.5,2
		c0.2,0.2,0.3,0.5,0.3,0.8c0,3.6,0.8,7.4,2.4,11.4c2,5.2,5.5,9.3,9.9,11.6c2.6,1.3,5.6,2,8.5,2c2.3,0,4.6-0.4,6.7-1.2c0,0,0,0,0,0
		c4.6-1.6,8.1-5.4,9.6-10.6c1.6-5.6,0.4-11.7-3-15.7c0,0,0,0-0.1-0.1c-2.2-2.9-5.9-4.6-10.2-4.6c-1.5,0-2.9,0.2-4.2,0.6c0,0,0,0,0,0
		c-1.7,0.5-4.9,1.8-6.4,4.7c-1.2,2.3-1.4,5.2-0.3,8c0.2,0.6,0.4,1.1,0.6,1.5c0,0.1,0.1,0.1,0.1,0.2c1,2.4,3.9,3.9,6,3.9
		c0.8,0,1.4-0.2,1.9-0.5c0,0,0.1,0,0.1-0.1c0.4-0.3,0.7-0.5,0.9-0.7c-0.6,0.2-1.4,0.4-2.2,0.4c-2.1,0-3.7-1.1-5-3.3c0,0,0,0,0,0
		c-1.5-2.3-1.9-5.1-1.1-7.4c0.7-2,2.2-3.6,4.2-4.3c1.7-0.8,3.6-1.2,5.5-1.2c3.2,0,6,1.1,8,3.1c3.5,3.5,4.9,9.2,3.7,14.6
		c-1.2,4.9-4.3,8.6-8.6,10c-2.2,0.9-4.3,1.4-6.4,1.4c-9.3,0-15.7-8.4-18-16.7c-2.7-10.1,0.4-19.5,7.9-23.9c2.1-1.6,4.2-2.9,5.9-3.9
		c0.7-0.4,1.3-0.8,1.9-1.2c-1.2,0.2-5,0.9-9.2,4c0,0,0,0,0,0c-0.2,0.2-0.5,0.4-0.8,0.6c-0.1,0.1-0.3,0.3-0.4,0.4
		c-3.9,3.2-6.6,7.8-7.5,12.6c-0.1,0.6-0.6,1.1-1.2,1.1c-0.1,0-0.1,0-0.2,0c-0.5,0-1-0.3-1.3-0.8c-1.5-3.2-4.3-8-9.4-12.7
		c0,0,0,0-0.1-0.1c-3-2.5-7.4-3.9-12.2-3.9c-0.5,0-1,0-1.5,0.1c-0.7,0-1.3,0.1-2,0.1c-1.9,0.1-3.7,0.1-5.6,0.1
		c-2.6,0-4.7-0.1-6.7-0.5c-9.5-1.6-18.4-6.2-24.3-12.8c-12.8-13.5-12.7-37.8,0.2-50.9c5.2-5,12.4-7.7,20.4-7.7
		c1.8,0,3.7,0.1,5.5,0.4c8.5,1.2,18.4,6,20.7,15.7c1.1,3.9,1.1,8.5,0.1,13.8c0,0,0,0,0,0.1c-1.1,4.7-2.2,9.5-5.7,12.1
		c-2.1,1.9-5.1,2.9-8.3,2.9c-6,0-12.3-3.8-12.5-10.1c-0.7-6.8,2.9-11.1,6.7-12.4c0.5-0.2,1-0.4,1.4-0.5c-0.6,0-1.2,0.1-1.8,0.3
		c0,0-0.1,0-0.2,0c-1.8,0.2-3.8,1.5-5.4,3.6c-2.2,2.9-3.1,6.6-2.4,10c0,0.1,0,0.1,0,0.2c0,0.6,0.3,1.3,0.5,2c0.1,0.3,0.2,0.6,0.3,1
		c2.3,4.8,7.2,7.8,13,7.8c4.6,0,8.8-1.9,11.5-5.2c0.3-0.3,0.7-0.5,1.1-0.5c0.1,0,0.3,0,0.4,0.1c0.5,0.2,0.9,0.7,1,1.2
		c0.1,1.5,0.4,2.9,0.8,4.4l0.5,1.2c1.6,4.3,4.4,7.7,7.7,9.5c2.4,1.4,5.3,2.1,8.6,2.1c1.1,0,2.3-0.1,3.5-0.2
		c4.4-0.5,8.8-2.2,12.2-4.8c0.2-0.2,0.5-0.3,0.8-0.3c0.2,0,0.5,0.1,0.7,0.2c0.5,0.3,0.8,0.8,0.7,1.4c-0.3,2-0.4,5.1,0.4,8.9l0.4,1.8
		c0.1,0.6,0.3,1.2,0.5,1.9c0.1,0.4,0.1,0.8-0.2,1.2c-0.1,0.1-0.2,0.2-0.3,0.3c0,0,0,0,0.1,0c0.1,0,0.3,0,0.4,0.1
		c0.4,0.1,0.7,0.4,0.9,0.8c4.1,9,13.9,15.4,24,15.5c0.4,0,0.9,0,1.3,0c11.9,0,22.6-6.3,27.1-16.1c2.3-5.1,2.2-11.6-0.2-16.9
		c0,0,0,0,0-0.1c-2-4.7-6.6-10.3-13-10.4l-0.2,0c-5.6,0-11.1,3.3-14.3,8.7c-1.6,2.8-2.2,5.9-1.7,8.6c0.5,2.8,2.4,5.5,5,7.2
		c0.2,0.1,0.4,0.2,0.6,0.4c0.3,0.2,0.6,0.4,1,0.6c0,0,0.1,0,0.1,0.1c1.1,0.6,2.3,1,3.5,1c0.9,0,1.8-0.2,2.5-0.7c1.7-1.2,2-2.7,2.2-4
		l0-0.1c0-0.4,0.1-0.8,0.1-1.1c-0.1,0.3-0.2,0.5-0.3,0.8c0,0,0,0.1,0,0.1c-0.9,1.7-1.9,3.6-4.1,3.6c-0.7,0-1.5-0.2-2.4-0.6
		c0,0,0,0,0,0c-2.8-1.2-5-3.3-6-5.8c-0.9-2.3-0.9-4.8,0.2-7.2c2-5.1,7.3-9.1,12.4-9.6c0.4,0,0.8-0.1,1.1-0.1c4.6,0,9,3.3,11.5,8.7
		c2.6,5.2,2.9,11.1,0.7,16.1c-3.9,9-14.5,15.3-25.6,15.3c-0.7,0-1.5,0-2.2-0.1c-11.8-0.7-21.6-9.3-23.4-20.6c0,0,0,0,0,0
		c-0.7-3.2-1-6.1-1.2-8.4c-0.1-1-0.2-1.8-0.3-2.5c-0.1-0.4,0.1-0.8,0.4-1.1c1.7-1.9,3-4,3.7-6.3c0,0,0,0,0-0.1
		c2.9-7.6-0.9-17.2-8.5-21.3c0,0,0,0-0.1,0c-1.4-0.9-3.1-1.3-5-1.3c-2.7,0-5.2,1-6.9,2.6c0,0,0,0,0,0c-3.4,3.1-5.2,7.1-4.9,11.4
		c0,0.4,0.1,0.8,0.2,1.2l0.1,0.2c0.7,2.8,3.5,4.1,5.3,4.1c0.2,0,0.3,0,0.4,0c0,0,0.1,0,0.1,0c0.3,0,0.6-0.1,0.9-0.2
		c-1.7-0.6-4.2-1.5-4.9-4c0,0,0-0.1,0-0.1c-0.9-2.7-0.2-6,1.9-8.9c2.1-2.9,5-4.7,7.9-4.7c1.2,0,2.4,0.3,3.5,0.9
		c6.6,3.2,11.6,11.8,8.6,19.6c-2.7,8.6-12.2,13-20.3,13c-8.3,0-14.4-4.6-15.9-12c-0.4-1.2-0.7-2.3-1-3.3c-0.5-1.9-1-3.5-1.5-4.4
		c-0.2-0.4-0.2-0.8,0-1.2c3.2-7.4,3.6-15.1,1.3-22.9c-0.7-2.3-2-4.4-3.6-6.4c-0.4-0.5-0.5-1.1-0.1-1.6c0.3-0.4,0.7-0.7,1.2-0.7
		c0.1,0,0.2,0,0.3,0c1.3,0.3,2.7,0.5,4.2,0.5c0.9,0,1.7-0.1,2.6-0.2l1.4-0.2c0,0,0.1,0,0.1,0c8.4-1,16.1-8.5,17.6-17.1
		c0,0,0,0,0-0.1c0.3-1.3,0.5-2.6,0.7-3.9c0.1-0.7,0.6-1.2,1.3-1.2c-0.1,0-0.2,0-0.2-0.1c-0.5-0.2-0.9-0.7-0.9-1.3
		c0-2.3-0.2-4.5-0.9-6.5c-1.2-4.1-4.4-7.8-8.4-9.9c-3.1-1.6-6.6-2.5-10.2-2.5c-0.8,0-1.7,0-2.5,0.1c-3.9,0.3-8.8,2.1-11.1,6.5
		c-2.3,4.1-2.2,9.2,0.3,13c0,0,0,0,0,0.1c1.4,2.4,4.1,3.8,7.3,3.8c1.8,0,3.6-0.5,5-1.4c0,0,0,0,0.1,0c0.4-0.2,0.7-0.5,1.1-0.9
		c2.3-2.7,2.3-5.1,2-6.6c-0.2-0.7-0.4-1.2-0.7-1.7c0,1.8-0.2,4.4-2,6.6c0,0.1-0.1,0.1-0.1,0.2c-1.3,1.4-3.4,2.3-5.6,2.3
		c-2,0-3.8-0.8-4.8-2.1c-2.6-2.7-3.3-7.6-1.6-11.3c1.8-4.2,6.5-6.7,12.5-6.7c3.3,0,6.7,0.8,9.5,2.2c8.3,3.8,10.1,13.8,7.6,21.7
		c-1.8,8.5-8.8,14.6-17.8,15.5c0,0-0.1,0-0.1,0c-1.5,0.2-3,0.3-4.3,0.4c-2.1,0.2-4,0.4-4.8,0.7c-0.2,0.1-0.3,0.1-0.5,0.1
		c-0.3,0-0.6-0.1-0.9-0.3c-4.1-3.3-9.7-5.5-15.7-6.2c-1.7-0.2-3.3-0.3-5-0.3c-4.9,0-9.6,1-13.8,2.9c-0.2,0.1-0.4,0.1-0.6,0.1
		c-0.4,0-0.8-0.2-1.1-0.5c-0.4-0.5-0.5-1.1-0.1-1.7c1.4-2.3,2.5-4.8,3.3-7.5c0-0.1,0-0.1,0.1-0.2c4.1-14.8-4.1-29.2-12.5-37.1
		c0,0,0,0-0.1-0.1L104.3,0h-2.4c0.1,0.1,0.1,0.1,0.2,0.2c10.7,9.6,15.8,22.2,13.9,33.8c-0.1,0.5-0.2,0.9-0.3,1.3
		c-0.1,0.2-0.1,0.4-0.2,0.7c-1,4.5-2.6,8.3-3.7,11.1c-0.4,0.9-0.7,1.6-0.9,2.2c-0.1,0.3-0.3,0.5-0.5,0.6c-0.9,0.7-1.8,1.3-2.5,2.1
		c-10.6,10.7-13.7,27.8-7.6,42.6c0.2,0.6,0.1,1.3-0.5,1.7c-1.1,0.8-2.6,2.3-4.4,4.5l-0.6,0.8c-5.2,6-10.3,9.5-15.4,10.4
		c-0.8,0.2-1.6,0.2-2.4,0.2c-4.8,0-9.6-2.7-13.7-7.7c-3-3.2-4.6-6.9-4.5-10.2c0.1-2.4,1.1-4.5,3-6.1c2-1.9,5-3.1,7.7-3.1
		c3.6,0,6,2.2,6.1,5.6c0,0.3,0,0.5,0.1,0.7l0,0.1c0.3,2.4-0.7,4.2-1.3,5.4c0,0.1-0.1,0.1-0.1,0.2c1.2-0.5,3-2,3.2-5.1c0,0,0,0,0,0
		c-0.1-2.2-0.4-3.5-1.3-5.3C75.2,85.1,73.4,83.8,71.6,83.5z"/>
</g>
</svg>
